<mxfile host="app.diagrams.net" agent="Mozilla/5.0 (X11; Linux x86_64) AppleWebKit/537.36 (KHTML, like Gecko) Chrome/131.0.0.0 Safari/537.36" version="26.0.10">
  <diagram name="Page-1" id="LKn-iEGYep-hsjYGfmL_">
    <mxGraphModel dx="1449" dy="977" grid="1" gridSize="10" guides="1" tooltips="1" connect="1" arrows="1" fold="1" page="1" pageScale="1" pageWidth="850" pageHeight="1100" math="0" shadow="0">
      <root>
        <mxCell id="0" />
        <mxCell id="1" parent="0" />
        <mxCell id="PeM5nPBu75pHxgV6iw11-15" value="" style="rounded=0;whiteSpace=wrap;html=1;fillColor=none;fontColor=#000000;strokeColor=#000000;dashed=1;movable=1;resizable=1;rotatable=1;deletable=1;editable=1;locked=0;connectable=1;" parent="1" vertex="1">
          <mxGeometry x="60" y="380" width="280" height="380" as="geometry" />
        </mxCell>
        <mxCell id="PeM5nPBu75pHxgV6iw11-1" value="&lt;div&gt;Batch Transaction&lt;/div&gt;" style="whiteSpace=wrap;html=1;aspect=fixed;fillColor=#e1d5e7;strokeColor=#9673a6;" parent="1" vertex="1">
          <mxGeometry x="360" y="120" width="80" height="80" as="geometry" />
        </mxCell>
        <mxCell id="PeM5nPBu75pHxgV6iw11-2" value="" style="endArrow=none;html=1;rounded=0;entryX=0.5;entryY=1;entryDx=0;entryDy=0;fillColor=#e1d5e7;strokeColor=#9673a6;movable=0;resizable=0;rotatable=0;deletable=0;editable=0;locked=1;connectable=0;" parent="1" target="PeM5nPBu75pHxgV6iw11-1" edge="1">
          <mxGeometry width="50" height="50" relative="1" as="geometry">
            <mxPoint x="400" y="1130" as="sourcePoint" />
            <mxPoint x="440" y="570" as="targetPoint" />
          </mxGeometry>
        </mxCell>
        <mxCell id="PeM5nPBu75pHxgV6iw11-38" style="edgeStyle=orthogonalEdgeStyle;rounded=0;orthogonalLoop=1;jettySize=auto;html=1;exitX=1;exitY=0.5;exitDx=0;exitDy=0;entryX=0;entryY=0.5;entryDx=0;entryDy=0;" parent="1" source="PeM5nPBu75pHxgV6iw11-7" target="PeM5nPBu75pHxgV6iw11-35" edge="1">
          <mxGeometry relative="1" as="geometry" />
        </mxCell>
        <mxCell id="PeM5nPBu75pHxgV6iw11-3" value="" style="rounded=0;whiteSpace=wrap;html=1;fillColor=none;dashed=1;strokeWidth=1;" parent="1" vertex="1">
          <mxGeometry x="80" y="240" width="240" height="120" as="geometry" />
        </mxCell>
        <mxCell id="PeM5nPBu75pHxgV6iw11-4" value="Batch" style="text;html=1;strokeColor=none;fillColor=none;align=center;verticalAlign=middle;whiteSpace=wrap;rounded=0;" parent="1" vertex="1">
          <mxGeometry x="220" y="250" width="90" height="30" as="geometry" />
        </mxCell>
        <mxCell id="PeM5nPBu75pHxgV6iw11-5" value="Action Value" style="rounded=0;whiteSpace=wrap;html=1;fillColor=#d5e8d4;strokeColor=#82b366;" parent="1" vertex="1">
          <mxGeometry x="90" y="250" width="120" height="40" as="geometry" />
        </mxCell>
        <mxCell id="PeM5nPBu75pHxgV6iw11-6" value="minAda" style="rounded=0;whiteSpace=wrap;html=1;fillColor=#dae8fc;strokeColor=#6c8ebf;" parent="1" vertex="1">
          <mxGeometry x="90" y="290" width="120" height="20" as="geometry" />
        </mxCell>
        <mxCell id="PeM5nPBu75pHxgV6iw11-7" value="Batch Token" style="rounded=0;whiteSpace=wrap;html=1;fillColor=#dae8fc;strokeColor=#6c8ebf;" parent="1" vertex="1">
          <mxGeometry x="90" y="310" width="120" height="20" as="geometry" />
        </mxCell>
        <mxCell id="PeM5nPBu75pHxgV6iw11-40" style="edgeStyle=orthogonalEdgeStyle;rounded=0;orthogonalLoop=1;jettySize=auto;html=1;exitX=1;exitY=0.5;exitDx=0;exitDy=0;entryX=0;entryY=0.5;entryDx=0;entryDy=0;" parent="1" source="PeM5nPBu75pHxgV6iw11-13" target="PeM5nPBu75pHxgV6iw11-36" edge="1">
          <mxGeometry relative="1" as="geometry">
            <Array as="points">
              <mxPoint x="360" y="495" />
              <mxPoint x="360" y="340" />
            </Array>
          </mxGeometry>
        </mxCell>
        <mxCell id="PeM5nPBu75pHxgV6iw11-9" value="" style="rounded=0;whiteSpace=wrap;html=1;fillColor=none;strokeWidth=1;strokeColor=#C73500;" parent="1" vertex="1">
          <mxGeometry x="80" y="415" width="240" height="120" as="geometry" />
        </mxCell>
        <mxCell id="PeM5nPBu75pHxgV6iw11-10" value="Action UTxO" style="text;html=1;strokeColor=none;fillColor=none;align=center;verticalAlign=middle;whiteSpace=wrap;rounded=0;" parent="1" vertex="1">
          <mxGeometry x="230" y="415" width="90" height="30" as="geometry" />
        </mxCell>
        <mxCell id="PeM5nPBu75pHxgV6iw11-11" value="Action Datum" style="rounded=0;whiteSpace=wrap;html=1;fillColor=#d5e8d4;strokeColor=#82b366;" parent="1" vertex="1">
          <mxGeometry x="90" y="425" width="120" height="40" as="geometry" />
        </mxCell>
        <mxCell id="PeM5nPBu75pHxgV6iw11-12" value="minAda" style="rounded=0;whiteSpace=wrap;html=1;fillColor=#dae8fc;strokeColor=#6c8ebf;" parent="1" vertex="1">
          <mxGeometry x="90" y="465" width="120" height="20" as="geometry" />
        </mxCell>
        <mxCell id="PeM5nPBu75pHxgV6iw11-13" value="Underlying" style="rounded=0;whiteSpace=wrap;html=1;fillColor=#dae8fc;strokeColor=#6c8ebf;" parent="1" vertex="1">
          <mxGeometry x="90" y="485" width="120" height="20" as="geometry" />
        </mxCell>
        <mxCell id="1pfYX2CCrTjmh7Cda00o-27" style="edgeStyle=orthogonalEdgeStyle;rounded=0;orthogonalLoop=1;jettySize=auto;html=1;exitX=1;exitY=0.5;exitDx=0;exitDy=0;entryX=0;entryY=0.5;entryDx=0;entryDy=0;" parent="1" source="PeM5nPBu75pHxgV6iw11-14" target="PeM5nPBu75pHxgV6iw11-37" edge="1">
          <mxGeometry relative="1" as="geometry" />
        </mxCell>
        <mxCell id="PeM5nPBu75pHxgV6iw11-14" value="Action Token" style="rounded=0;whiteSpace=wrap;html=1;fillColor=#dae8fc;strokeColor=#6c8ebf;" parent="1" vertex="1">
          <mxGeometry x="90" y="505" width="120" height="20" as="geometry" />
        </mxCell>
        <mxCell id="PeM5nPBu75pHxgV6iw11-41" style="edgeStyle=orthogonalEdgeStyle;rounded=0;orthogonalLoop=1;jettySize=auto;html=1;exitX=1;exitY=0.5;exitDx=0;exitDy=0;entryX=0;entryY=0.5;entryDx=0;entryDy=0;" parent="1" source="PeM5nPBu75pHxgV6iw11-20" target="PeM5nPBu75pHxgV6iw11-36" edge="1">
          <mxGeometry relative="1" as="geometry">
            <Array as="points">
              <mxPoint x="360" y="625" />
              <mxPoint x="360" y="340" />
            </Array>
          </mxGeometry>
        </mxCell>
        <mxCell id="PeM5nPBu75pHxgV6iw11-16" value="" style="rounded=0;whiteSpace=wrap;html=1;fillColor=none;strokeWidth=1;strokeColor=#C73500;" parent="1" vertex="1">
          <mxGeometry x="80" y="545" width="240" height="120" as="geometry" />
        </mxCell>
        <mxCell id="PeM5nPBu75pHxgV6iw11-17" value="Action UTxO" style="text;html=1;strokeColor=none;fillColor=none;align=center;verticalAlign=middle;whiteSpace=wrap;rounded=0;" parent="1" vertex="1">
          <mxGeometry x="240" y="545" width="80" height="25" as="geometry" />
        </mxCell>
        <mxCell id="PeM5nPBu75pHxgV6iw11-18" value="Action Datum" style="rounded=0;whiteSpace=wrap;html=1;fillColor=#d5e8d4;strokeColor=#82b366;" parent="1" vertex="1">
          <mxGeometry x="90" y="555" width="120" height="40" as="geometry" />
        </mxCell>
        <mxCell id="PeM5nPBu75pHxgV6iw11-19" value="minAda" style="rounded=0;whiteSpace=wrap;html=1;fillColor=#dae8fc;strokeColor=#6c8ebf;" parent="1" vertex="1">
          <mxGeometry x="90" y="595" width="120" height="20" as="geometry" />
        </mxCell>
        <mxCell id="PeM5nPBu75pHxgV6iw11-20" value="Underlying" style="rounded=0;whiteSpace=wrap;html=1;fillColor=#dae8fc;strokeColor=#6c8ebf;" parent="1" vertex="1">
          <mxGeometry x="90" y="615" width="120" height="20" as="geometry" />
        </mxCell>
        <mxCell id="1pfYX2CCrTjmh7Cda00o-25" style="edgeStyle=orthogonalEdgeStyle;rounded=0;orthogonalLoop=1;jettySize=auto;html=1;exitX=1;exitY=0.5;exitDx=0;exitDy=0;entryX=0;entryY=0.5;entryDx=0;entryDy=0;" parent="1" source="PeM5nPBu75pHxgV6iw11-21" target="PeM5nPBu75pHxgV6iw11-37" edge="1">
          <mxGeometry relative="1" as="geometry" />
        </mxCell>
        <mxCell id="PeM5nPBu75pHxgV6iw11-21" value="&lt;div&gt;Action Token&lt;br&gt;&lt;/div&gt;" style="rounded=0;whiteSpace=wrap;html=1;fillColor=#dae8fc;strokeColor=#6c8ebf;" parent="1" vertex="1">
          <mxGeometry x="90" y="635" width="120" height="20" as="geometry" />
        </mxCell>
        <mxCell id="PeM5nPBu75pHxgV6iw11-28" value="[...]&lt;br&gt;Total &lt;i&gt;numAction&lt;/i&gt; utxos" style="text;html=1;strokeColor=none;fillColor=none;align=center;verticalAlign=middle;whiteSpace=wrap;rounded=0;" parent="1" vertex="1">
          <mxGeometry x="110" y="680" width="180" height="70" as="geometry" />
        </mxCell>
        <mxCell id="PeM5nPBu75pHxgV6iw11-31" value="" style="rounded=0;whiteSpace=wrap;html=1;fillColor=none;dashed=1;strokeWidth=1;" parent="1" vertex="1">
          <mxGeometry x="480" y="240" width="240" height="140" as="geometry" />
        </mxCell>
        <mxCell id="PeM5nPBu75pHxgV6iw11-32" value="BatchFinal" style="text;html=1;strokeColor=none;fillColor=none;align=center;verticalAlign=middle;whiteSpace=wrap;rounded=0;" parent="1" vertex="1">
          <mxGeometry x="620" y="250" width="90" height="30" as="geometry" />
        </mxCell>
        <mxCell id="PeM5nPBu75pHxgV6iw11-33" value="Action Value" style="rounded=0;whiteSpace=wrap;html=1;fillColor=#d5e8d4;strokeColor=#82b366;" parent="1" vertex="1">
          <mxGeometry x="490" y="250" width="120" height="40" as="geometry" />
        </mxCell>
        <mxCell id="PeM5nPBu75pHxgV6iw11-34" value="minAda" style="rounded=0;whiteSpace=wrap;html=1;fillColor=#dae8fc;strokeColor=#6c8ebf;" parent="1" vertex="1">
          <mxGeometry x="490" y="290" width="120" height="20" as="geometry" />
        </mxCell>
        <mxCell id="PeM5nPBu75pHxgV6iw11-35" value="Batch Token" style="rounded=0;whiteSpace=wrap;html=1;fillColor=#dae8fc;strokeColor=#6c8ebf;" parent="1" vertex="1">
          <mxGeometry x="490" y="310" width="120" height="20" as="geometry" />
        </mxCell>
        <mxCell id="PeM5nPBu75pHxgV6iw11-36" value="Σ action underlying" style="rounded=0;whiteSpace=wrap;html=1;fillColor=#dae8fc;strokeColor=#6c8ebf;" parent="1" vertex="1">
          <mxGeometry x="490" y="330" width="120" height="20" as="geometry" />
        </mxCell>
        <mxCell id="PeM5nPBu75pHxgV6iw11-37" value="&lt;font style=&quot;font-size: 10px;&quot;&gt;numAction ActionTokens&lt;/font&gt;" style="rounded=0;whiteSpace=wrap;html=1;fillColor=#dae8fc;strokeColor=#6c8ebf;" parent="1" vertex="1">
          <mxGeometry x="490" y="350" width="120" height="20" as="geometry" />
        </mxCell>
        <mxCell id="PeM5nPBu75pHxgV6iw11-43" value="" style="rounded=0;whiteSpace=wrap;html=1;fillColor=none;dashed=1;strokeWidth=1;" parent="1" vertex="1">
          <mxGeometry x="80" y="780" width="240" height="120" as="geometry" />
        </mxCell>
        <mxCell id="PeM5nPBu75pHxgV6iw11-44" value="Market State Validator" style="text;html=1;strokeColor=none;fillColor=none;align=center;verticalAlign=middle;whiteSpace=wrap;rounded=0;" parent="1" vertex="1">
          <mxGeometry x="230" y="780" width="90" height="40" as="geometry" />
        </mxCell>
        <mxCell id="PeM5nPBu75pHxgV6iw11-45" value="MarketState" style="rounded=0;whiteSpace=wrap;html=1;fillColor=#d5e8d4;strokeColor=#82b366;" parent="1" vertex="1">
          <mxGeometry x="90" y="810" width="120" height="40" as="geometry" />
        </mxCell>
        <mxCell id="PeM5nPBu75pHxgV6iw11-46" value="minAda" style="rounded=0;whiteSpace=wrap;html=1;fillColor=#dae8fc;strokeColor=#6c8ebf;" parent="1" vertex="1">
          <mxGeometry x="90" y="850" width="120" height="20" as="geometry" />
        </mxCell>
        <mxCell id="PeM5nPBu75pHxgV6iw11-47" value="MarketStateToken" style="rounded=0;whiteSpace=wrap;html=1;fillColor=#dae8fc;strokeColor=#6c8ebf;" parent="1" vertex="1">
          <mxGeometry x="90" y="870" width="120" height="20" as="geometry" />
        </mxCell>
        <mxCell id="PeM5nPBu75pHxgV6iw11-48" value="" style="rounded=0;whiteSpace=wrap;html=1;fillColor=none;dashed=1;strokeWidth=1;" parent="1" vertex="1">
          <mxGeometry x="80" y="910" width="240" height="120" as="geometry" />
        </mxCell>
        <mxCell id="PeM5nPBu75pHxgV6iw11-49" value="Market Params Validator" style="text;html=1;strokeColor=none;fillColor=none;align=center;verticalAlign=middle;whiteSpace=wrap;rounded=0;" parent="1" vertex="1">
          <mxGeometry x="230" y="910" width="90" height="40" as="geometry" />
        </mxCell>
        <mxCell id="PeM5nPBu75pHxgV6iw11-50" value="MarketParams" style="rounded=0;whiteSpace=wrap;html=1;fillColor=#d5e8d4;strokeColor=#82b366;" parent="1" vertex="1">
          <mxGeometry x="90" y="940" width="120" height="40" as="geometry" />
        </mxCell>
        <mxCell id="PeM5nPBu75pHxgV6iw11-51" value="minAda" style="rounded=0;whiteSpace=wrap;html=1;fillColor=#dae8fc;strokeColor=#6c8ebf;" parent="1" vertex="1">
          <mxGeometry x="90" y="980" width="120" height="20" as="geometry" />
        </mxCell>
        <mxCell id="PeM5nPBu75pHxgV6iw11-52" value="MarketParamsToken" style="rounded=0;whiteSpace=wrap;html=1;fillColor=#dae8fc;strokeColor=#6c8ebf;" parent="1" vertex="1">
          <mxGeometry x="90" y="1000" width="120" height="20" as="geometry" />
        </mxCell>
        <mxCell id="PeM5nPBu75pHxgV6iw11-57" value="Σ ActionValue" style="text;html=1;strokeColor=none;fillColor=none;align=center;verticalAlign=middle;whiteSpace=wrap;rounded=0;" parent="1" vertex="1">
          <mxGeometry x="620" y="285" width="90" height="85" as="geometry" />
        </mxCell>
        <mxCell id="1pfYX2CCrTjmh7Cda00o-1" value="" style="rounded=0;whiteSpace=wrap;html=1;fontSize=12;movable=1;resizable=1;rotatable=1;deletable=1;editable=1;locked=0;connectable=1;" parent="1" vertex="1">
          <mxGeometry x="-240" y="100" width="240" height="640" as="geometry" />
        </mxCell>
        <mxCell id="1pfYX2CCrTjmh7Cda00o-2" value="Legend:" style="text;html=1;strokeColor=none;fillColor=none;align=center;verticalAlign=middle;whiteSpace=wrap;rounded=0;fontStyle=1;fontSize=24;movable=1;resizable=1;rotatable=1;deletable=1;editable=1;locked=0;connectable=1;" parent="1" vertex="1">
          <mxGeometry x="-200" y="100" width="160" height="70" as="geometry" />
        </mxCell>
        <mxCell id="1pfYX2CCrTjmh7Cda00o-3" value="Validator address" style="rounded=0;whiteSpace=wrap;html=1;fontSize=12;fillColor=none;dashed=1;horizontal=1;strokeColor=#000000;gradientColor=none;movable=1;resizable=1;rotatable=1;deletable=1;editable=1;locked=0;connectable=1;" parent="1" vertex="1">
          <mxGeometry x="-200" y="170" width="160" height="40" as="geometry" />
        </mxCell>
        <mxCell id="1pfYX2CCrTjmh7Cda00o-4" value="Tx" style="rounded=0;whiteSpace=wrap;html=1;fontSize=12;fillColor=#e1d5e7;horizontal=1;strokeColor=#9673a6;movable=1;resizable=1;rotatable=1;deletable=1;editable=1;locked=0;connectable=1;" parent="1" vertex="1">
          <mxGeometry x="-200" y="220" width="40" height="40" as="geometry" />
        </mxCell>
        <mxCell id="1pfYX2CCrTjmh7Cda00o-5" value="&lt;div&gt;Datum&lt;/div&gt;" style="rounded=0;whiteSpace=wrap;html=1;fontSize=12;fillColor=#d5e8d4;horizontal=1;strokeColor=#82b366;movable=1;resizable=1;rotatable=1;deletable=1;editable=1;locked=0;connectable=1;" parent="1" vertex="1">
          <mxGeometry x="-200" y="270" width="100" height="40" as="geometry" />
        </mxCell>
        <mxCell id="1pfYX2CCrTjmh7Cda00o-6" value="" style="rounded=0;whiteSpace=wrap;html=1;fontSize=12;fillColor=#d5e8d4;horizontal=1;strokeColor=#82b366;movable=1;resizable=1;rotatable=1;deletable=1;editable=1;locked=0;connectable=1;" parent="1" vertex="1">
          <mxGeometry x="-90" y="270" width="50" height="46" as="geometry" />
        </mxCell>
        <mxCell id="1pfYX2CCrTjmh7Cda00o-7" value="Value" style="rounded=0;whiteSpace=wrap;html=1;fontSize=12;fillColor=#dae8fc;horizontal=1;strokeColor=#6c8ebf;movable=1;resizable=1;rotatable=1;deletable=1;editable=1;locked=0;connectable=1;" parent="1" vertex="1">
          <mxGeometry x="-200" y="320" width="100" height="40" as="geometry" />
        </mxCell>
        <mxCell id="1pfYX2CCrTjmh7Cda00o-8" value="" style="rounded=0;whiteSpace=wrap;html=1;fontSize=12;fillColor=#dae8fc;horizontal=1;strokeColor=#6c8ebf;movable=1;resizable=1;rotatable=1;deletable=1;editable=1;locked=0;connectable=1;" parent="1" vertex="1">
          <mxGeometry x="-90" y="316" width="50" height="44" as="geometry" />
        </mxCell>
        <mxCell id="1pfYX2CCrTjmh7Cda00o-9" value="UTXO" style="text;html=1;strokeColor=none;fillColor=none;align=center;verticalAlign=middle;whiteSpace=wrap;rounded=0;fontSize=12;movable=1;resizable=1;rotatable=1;deletable=1;editable=1;locked=0;connectable=1;" parent="1" vertex="1">
          <mxGeometry x="-85" y="300" width="40" height="30" as="geometry" />
        </mxCell>
        <mxCell id="1pfYX2CCrTjmh7Cda00o-10" value="" style="triangle;whiteSpace=wrap;html=1;fontSize=12;strokeColor=default;fillColor=default;movable=1;resizable=1;rotatable=1;deletable=1;editable=1;locked=0;connectable=1;" parent="1" vertex="1">
          <mxGeometry x="-120" y="380" width="40" height="40" as="geometry" />
        </mxCell>
        <mxCell id="1pfYX2CCrTjmh7Cda00o-11" value="" style="endArrow=classic;html=1;rounded=0;fontSize=12;entryX=0;entryY=0.5;entryDx=0;entryDy=0;movable=1;resizable=1;rotatable=1;deletable=1;editable=1;locked=0;connectable=1;" parent="1" target="1pfYX2CCrTjmh7Cda00o-10" edge="1">
          <mxGeometry width="50" height="50" relative="1" as="geometry">
            <mxPoint x="-200" y="400" as="sourcePoint" />
            <mxPoint x="-150" y="420" as="targetPoint" />
          </mxGeometry>
        </mxCell>
        <mxCell id="1pfYX2CCrTjmh7Cda00o-12" value="Burn" style="text;html=1;strokeColor=none;fillColor=none;align=center;verticalAlign=middle;whiteSpace=wrap;rounded=0;fontSize=12;movable=1;resizable=1;rotatable=1;deletable=1;editable=1;locked=0;connectable=1;" parent="1" vertex="1">
          <mxGeometry x="-190" y="370" width="60" height="30" as="geometry" />
        </mxCell>
        <mxCell id="1pfYX2CCrTjmh7Cda00o-13" value="" style="triangle;whiteSpace=wrap;html=1;fontSize=12;strokeColor=default;fillColor=default;movable=1;resizable=1;rotatable=1;deletable=1;editable=1;locked=0;connectable=1;" parent="1" vertex="1">
          <mxGeometry x="-200" y="440" width="40" height="40" as="geometry" />
        </mxCell>
        <mxCell id="1pfYX2CCrTjmh7Cda00o-14" value="" style="endArrow=classic;html=1;rounded=0;fontSize=12;exitX=1;exitY=0.5;exitDx=0;exitDy=0;movable=1;resizable=1;rotatable=1;deletable=1;editable=1;locked=0;connectable=1;" parent="1" source="1pfYX2CCrTjmh7Cda00o-13" edge="1">
          <mxGeometry width="50" height="50" relative="1" as="geometry">
            <mxPoint x="-120" y="500" as="sourcePoint" />
            <mxPoint x="-80" y="460" as="targetPoint" />
          </mxGeometry>
        </mxCell>
        <mxCell id="1pfYX2CCrTjmh7Cda00o-15" value="Mint" style="text;html=1;strokeColor=none;fillColor=none;align=center;verticalAlign=middle;whiteSpace=wrap;rounded=0;fontSize=12;movable=1;resizable=1;rotatable=1;deletable=1;editable=1;locked=0;connectable=1;" parent="1" vertex="1">
          <mxGeometry x="-150" y="430" width="60" height="30" as="geometry" />
        </mxCell>
        <mxCell id="1pfYX2CCrTjmh7Cda00o-16" value="Wallet address" style="rounded=0;whiteSpace=wrap;html=1;fontSize=12;fillColor=#FFFAED;dashed=1;horizontal=1;dashPattern=1 4;strokeColor=#d6b656;movable=1;resizable=1;rotatable=1;deletable=1;editable=1;locked=0;connectable=1;" parent="1" vertex="1">
          <mxGeometry x="-200" y="500" width="160" height="40" as="geometry" />
        </mxCell>
        <mxCell id="1pfYX2CCrTjmh7Cda00o-17" style="edgeStyle=orthogonalEdgeStyle;rounded=0;orthogonalLoop=1;jettySize=auto;html=1;exitX=1;exitY=0.5;exitDx=0;exitDy=0;fontSize=12;movable=1;resizable=1;rotatable=1;deletable=1;editable=1;locked=0;connectable=1;" parent="1" source="1pfYX2CCrTjmh7Cda00o-18" edge="1">
          <mxGeometry relative="1" as="geometry">
            <mxPoint x="-50" y="601" as="targetPoint" />
          </mxGeometry>
        </mxCell>
        <mxCell id="1pfYX2CCrTjmh7Cda00o-18" value="..." style="ellipse;whiteSpace=wrap;html=1;aspect=fixed;fontSize=12;strokeColor=#000000;fillColor=none;gradientColor=none;movable=1;resizable=1;rotatable=1;deletable=1;editable=1;locked=0;connectable=1;" parent="1" vertex="1">
          <mxGeometry x="-195" y="586" width="30" height="30" as="geometry" />
        </mxCell>
        <mxCell id="1pfYX2CCrTjmh7Cda00o-19" value="Source omitted" style="text;html=1;strokeColor=none;fillColor=none;align=center;verticalAlign=middle;whiteSpace=wrap;rounded=0;fontSize=12;movable=1;resizable=1;rotatable=1;deletable=1;editable=1;locked=0;connectable=1;" parent="1" vertex="1">
          <mxGeometry x="-165" y="570" width="95" height="20" as="geometry" />
        </mxCell>
        <mxCell id="1pfYX2CCrTjmh7Cda00o-20" value="Script" style="rounded=0;whiteSpace=wrap;html=1;fontSize=12;fillColor=#f8cecc;horizontal=1;strokeColor=#b85450;movable=1;resizable=1;rotatable=1;deletable=1;editable=1;locked=0;connectable=1;" parent="1" vertex="1">
          <mxGeometry x="-150" y="220" width="110" height="40" as="geometry" />
        </mxCell>
        <mxCell id="1pfYX2CCrTjmh7Cda00o-21" value="" style="endArrow=none;html=1;rounded=0;fillColor=#e1d5e7;strokeColor=#9673a6;movable=1;resizable=1;rotatable=1;deletable=1;editable=1;locked=0;connectable=1;" parent="1" edge="1">
          <mxGeometry width="50" height="50" relative="1" as="geometry">
            <mxPoint x="-70" y="695" as="sourcePoint" />
            <mxPoint x="-70" y="645" as="targetPoint" />
          </mxGeometry>
        </mxCell>
        <mxCell id="1pfYX2CCrTjmh7Cda00o-22" value="" style="shape=link;html=1;rounded=0;fillColor=#e1d5e7;strokeColor=#9673a6;movable=1;resizable=1;rotatable=1;deletable=1;editable=1;locked=0;connectable=1;" parent="1" edge="1">
          <mxGeometry width="100" relative="1" as="geometry">
            <mxPoint x="-170" y="670" as="sourcePoint" />
            <mxPoint x="-70" y="670" as="targetPoint" />
          </mxGeometry>
        </mxCell>
        <mxCell id="1pfYX2CCrTjmh7Cda00o-23" value="Reference input" style="text;html=1;strokeColor=none;fillColor=none;align=center;verticalAlign=middle;whiteSpace=wrap;rounded=0;fontSize=12;movable=1;resizable=1;rotatable=1;deletable=1;editable=1;locked=0;connectable=1;" parent="1" vertex="1">
          <mxGeometry x="-167.5" y="645" width="95" height="20" as="geometry" />
        </mxCell>
        <mxCell id="1pfYX2CCrTjmh7Cda00o-26" value="Action Validator" style="text;html=1;strokeColor=none;fillColor=none;align=center;verticalAlign=middle;whiteSpace=wrap;rounded=0;" parent="1" vertex="1">
          <mxGeometry x="250" y="380" width="90" height="30" as="geometry" />
        </mxCell>
        <mxCell id="1pfYX2CCrTjmh7Cda00o-30" value="" style="shape=link;html=1;rounded=0;fillColor=#e1d5e7;strokeColor=#9673a6;movable=1;resizable=1;rotatable=1;deletable=1;editable=1;locked=0;connectable=1;" parent="1" edge="1">
          <mxGeometry width="100" relative="1" as="geometry">
            <mxPoint x="210" y="959.6600000000001" as="sourcePoint" />
            <mxPoint x="400" y="960.1600000000001" as="targetPoint" />
          </mxGeometry>
        </mxCell>
        <mxCell id="1pfYX2CCrTjmh7Cda00o-31" value="" style="shape=link;html=1;rounded=0;fillColor=#e1d5e7;strokeColor=#9673a6;movable=1;resizable=1;rotatable=1;deletable=1;editable=1;locked=0;connectable=1;" parent="1" edge="1">
          <mxGeometry width="100" relative="1" as="geometry">
            <mxPoint x="210" y="1010" as="sourcePoint" />
            <mxPoint x="400" y="1010.5" as="targetPoint" />
          </mxGeometry>
        </mxCell>
        <mxCell id="1pfYX2CCrTjmh7Cda00o-33" value="" style="shape=image;html=1;verticalAlign=top;verticalLabelPosition=bottom;labelBackgroundColor=#ffffff;imageAspect=0;aspect=fixed;image=https://cdn0.iconfinder.com/data/icons/evericons-24px-vol-2/24/lightbulb-128.png;imageBorder=default;" parent="1" vertex="1">
          <mxGeometry x="420" y="962" width="18" height="18" as="geometry" />
        </mxCell>
        <mxCell id="1pfYX2CCrTjmh7Cda00o-37" value="Trust based on token, rather than validator address!" style="text;html=1;align=left;verticalAlign=top;whiteSpace=wrap;rounded=0;" parent="1" vertex="1">
          <mxGeometry x="450" y="820" width="160" height="40" as="geometry" />
        </mxCell>
        <mxCell id="1pfYX2CCrTjmh7Cda00o-38" value="" style="shape=image;html=1;verticalAlign=top;verticalLabelPosition=bottom;labelBackgroundColor=#ffffff;imageAspect=0;aspect=fixed;image=https://cdn0.iconfinder.com/data/icons/evericons-24px-vol-2/24/lightbulb-128.png;imageBorder=default;" parent="1" vertex="1">
          <mxGeometry x="420" y="831" width="18" height="18" as="geometry" />
        </mxCell>
        <mxCell id="1pfYX2CCrTjmh7Cda00o-40" value="" style="endArrow=none;startArrow=none;html=1;rounded=0;startFill=0;endFill=0;entryX=0.5;entryY=1;entryDx=0;entryDy=0;" parent="1" source="1pfYX2CCrTjmh7Cda00o-33" target="1pfYX2CCrTjmh7Cda00o-38" edge="1">
          <mxGeometry width="50" height="50" relative="1" as="geometry">
            <mxPoint x="380" y="900" as="sourcePoint" />
            <mxPoint x="430" y="850" as="targetPoint" />
          </mxGeometry>
        </mxCell>
        <mxCell id="1pfYX2CCrTjmh7Cda00o-42" value="" style="endArrow=none;html=1;rounded=0;entryX=0;entryY=0.5;entryDx=0;entryDy=0;dashed=1;dashPattern=1 4;" parent="1" source="PeM5nPBu75pHxgV6iw11-48" target="1pfYX2CCrTjmh7Cda00o-33" edge="1">
          <mxGeometry width="50" height="50" relative="1" as="geometry">
            <mxPoint x="370" y="1030" as="sourcePoint" />
            <mxPoint x="420" y="980" as="targetPoint" />
          </mxGeometry>
        </mxCell>
        <mxCell id="1pfYX2CCrTjmh7Cda00o-44" value="" style="endArrow=none;html=1;rounded=0;entryX=0;entryY=0.5;entryDx=0;entryDy=0;dashed=1;dashPattern=1 4;" parent="1" source="PeM5nPBu75pHxgV6iw11-43" target="1pfYX2CCrTjmh7Cda00o-38" edge="1">
          <mxGeometry width="50" height="50" relative="1" as="geometry">
            <mxPoint x="340" y="890" as="sourcePoint" />
            <mxPoint x="390" y="840" as="targetPoint" />
          </mxGeometry>
        </mxCell>
        <mxCell id="1pfYX2CCrTjmh7Cda00o-46" value="" style="shape=link;html=1;rounded=0;fillColor=#e1d5e7;strokeColor=#9673a6;movable=1;resizable=1;rotatable=1;deletable=1;editable=1;locked=0;connectable=1;" parent="1" edge="1">
          <mxGeometry width="100" relative="1" as="geometry">
            <mxPoint x="210" y="879.71" as="sourcePoint" />
            <mxPoint x="400" y="880" as="targetPoint" />
          </mxGeometry>
        </mxCell>
        <mxCell id="1pfYX2CCrTjmh7Cda00o-47" value="" style="shape=link;html=1;rounded=0;fillColor=#e1d5e7;strokeColor=#9673a6;movable=1;resizable=1;rotatable=1;deletable=1;editable=1;locked=0;connectable=1;" parent="1" edge="1">
          <mxGeometry width="100" relative="1" as="geometry">
            <mxPoint x="210" y="829.4300000000001" as="sourcePoint" />
            <mxPoint x="400" y="829.9300000000001" as="targetPoint" />
          </mxGeometry>
        </mxCell>
        <mxCell id="1pfYX2CCrTjmh7Cda00o-48" value="" style="shape=link;html=1;rounded=0;fillColor=#e1d5e7;strokeColor=#9673a6;movable=1;resizable=1;rotatable=1;deletable=1;editable=1;locked=0;connectable=1;exitX=1;exitY=0.5;exitDx=0;exitDy=0;" parent="1" source="1pfYX2CCrTjmh7Cda00o-49" edge="1">
          <mxGeometry width="100" relative="1" as="geometry">
            <mxPoint x="210" y="1070" as="sourcePoint" />
            <mxPoint x="400" y="1070.5" as="targetPoint" />
          </mxGeometry>
        </mxCell>
        <mxCell id="1pfYX2CCrTjmh7Cda00o-49" value="Script" style="rounded=0;whiteSpace=wrap;html=1;fontSize=12;fillColor=#f8cecc;horizontal=1;strokeColor=#b85450;movable=1;resizable=1;rotatable=1;deletable=1;editable=1;locked=0;connectable=1;" parent="1" vertex="1">
          <mxGeometry x="95" y="1050" width="115" height="40" as="geometry" />
        </mxCell>
        <mxCell id="1pfYX2CCrTjmh7Cda00o-50" value="minAda" style="rounded=0;whiteSpace=wrap;html=1;fillColor=#dae8fc;strokeColor=#6c8ebf;" parent="1" vertex="1">
          <mxGeometry x="95" y="1090" width="115" height="20" as="geometry" />
        </mxCell>
        <mxCell id="1pfYX2CCrTjmh7Cda00o-52" value="" style="rounded=0;whiteSpace=wrap;html=1;fillColor=none;dashed=1;strokeWidth=1;" parent="1" vertex="1">
          <mxGeometry x="80" y="1040" width="240" height="120" as="geometry" />
        </mxCell>
        <mxCell id="1pfYX2CCrTjmh7Cda00o-53" value="FreeMultiSigValidator" style="text;html=1;strokeColor=none;fillColor=none;align=center;verticalAlign=middle;whiteSpace=wrap;rounded=0;" parent="1" vertex="1">
          <mxGeometry x="180" y="1120" width="140" height="40" as="geometry" />
        </mxCell>
        <mxCell id="1pfYX2CCrTjmh7Cda00o-54" value="Any necessary scripts are referenced like in any other transaction." style="text;html=1;align=left;verticalAlign=top;whiteSpace=wrap;rounded=0;" parent="1" vertex="1">
          <mxGeometry x="450" y="1058" width="215" height="42" as="geometry" />
        </mxCell>
        <mxCell id="1pfYX2CCrTjmh7Cda00o-55" value="" style="shape=image;html=1;verticalAlign=top;verticalLabelPosition=bottom;labelBackgroundColor=#ffffff;imageAspect=0;aspect=fixed;image=https://cdn0.iconfinder.com/data/icons/evericons-24px-vol-2/24/lightbulb-128.png;imageBorder=default;" parent="1" vertex="1">
          <mxGeometry x="420" y="1070" width="18" height="18" as="geometry" />
        </mxCell>
        <mxCell id="1pfYX2CCrTjmh7Cda00o-56" value="This transaction is only possible when&lt;div&gt;currentTime &amp;gt; lastBatch + minBatchTime&lt;/div&gt;&lt;div&gt;&lt;br&gt;&lt;/div&gt;&lt;div&gt;Checked in&amp;nbsp;&lt;b&gt;&lt;font face=&quot;Courier New&quot;&gt;Liqwid.Timing&lt;/font&gt;&lt;/b&gt;&lt;/div&gt;" style="text;html=1;align=left;verticalAlign=top;whiteSpace=wrap;rounded=0;" parent="1" vertex="1">
          <mxGeometry x="450" y="680" width="250" height="70" as="geometry" />
        </mxCell>
        <mxCell id="1pfYX2CCrTjmh7Cda00o-57" value="" style="shape=image;html=1;verticalAlign=top;verticalLabelPosition=bottom;labelBackgroundColor=#ffffff;imageAspect=0;aspect=fixed;image=https://cdn0.iconfinder.com/data/icons/evericons-24px-vol-2/24/lightbulb-128.png;imageBorder=default;" parent="1" vertex="1">
          <mxGeometry x="420" y="692" width="18" height="18" as="geometry" />
        </mxCell>
        <mxCell id="1pfYX2CCrTjmh7Cda00o-59" value="The main validation logic is handled by the batch validator.&lt;div&gt;&lt;br&gt;&lt;/div&gt;&lt;div&gt;Validator entry point is&amp;nbsp;&lt;b&gt;&lt;font face=&quot;Courier New&quot;&gt;Liqwid.Market.Scripts.batch&lt;/font&gt;&lt;/b&gt;&lt;/div&gt;" style="text;html=1;align=left;verticalAlign=top;whiteSpace=wrap;rounded=0;" parent="1" vertex="1">
          <mxGeometry x="450" y="467.5" width="332.5" height="55" as="geometry" />
        </mxCell>
        <mxCell id="1pfYX2CCrTjmh7Cda00o-60" value="" style="shape=image;html=1;verticalAlign=top;verticalLabelPosition=bottom;labelBackgroundColor=#ffffff;imageAspect=0;aspect=fixed;image=https://cdn0.iconfinder.com/data/icons/evericons-24px-vol-2/24/lightbulb-128.png;imageBorder=default;" parent="1" vertex="1">
          <mxGeometry x="420" y="475" width="18" height="18" as="geometry" />
        </mxCell>
      </root>
    </mxGraphModel>
  </diagram>
</mxfile>
